<svg version="1.1" id="Layer_1" xmlns="http://www.w3.org/2000/svg" xmlns:xlink="http://www.w3.org/1999/xlink" x="0" y="0" width="61" height="61" viewBox="0 0 61 61" xml:space="preserve" enable-background="new 0 0 61 61"><g><radialGradient id="SVGID_1_" cx="-517.326" cy="1217.463" r="1" gradientTransform="matrix(36.7656 0 0 -36.7656 19044.2754 44778.8672)" gradientUnits="userSpaceOnUse"><stop offset="0" stop-color="#FFE030"/><stop offset="1" stop-color="#FFB92E"/></radialGradient><path d="M30.5,61C47.3,61,61,47.3,61,30.5S47.3,0,30.5,0S0,13.6,0,30.5S13.6,61,30.5,61z" fill="url(#SVGID_1_)"/><radialGradient id="SVGID_00000162348000644471560840000010059995243664678586_" cx="-513.477" cy="1208.785" r="1" gradientTransform="matrix(28.9251 0 0 -28.9251 14876.8633 34982.3516)" gradientUnits="userSpaceOnUse"><stop offset="0" stop-color="#FFEA5F"/><stop offset="1" stop-color="#FFBC47" stop-opacity="0"/></radialGradient><path d="M30.5,61C47.3,61,61,47.3,61,30.5S47.3,0,30.5,0S0,13.6,0,30.5S13.6,61,30.5,61z" opacity="0.5" fill="url(#SVGID_00000162348000644471560840000010059995243664678586_)" enable-background="new"/><linearGradient id="SVGID_00000148651067719825145440000006125161637658751367_" gradientUnits="userSpaceOnUse" x1="17.342" y1="46.224" x2="17.342" y2="49.435" gradientTransform="matrix(1 0 0 -1 0 62.9524)"><stop offset=".001" stop-color="#3C2200"/><stop offset="1" stop-color="#7A4400"/></linearGradient><path d="M23.8,14.7c0-1.2-1.3-2-3.6-2 c-1.9,0-6.2,1.1-9.1,4.8c-0.5,0.7,0.3,1.1,0.8,0.6c1.8-1.5,6.6-3.5,10.4-3.1C23.8,15.2,23.8,14.7,23.8,14.7z" fill="url(#SVGID_00000148651067719825145440000006125161637658751367_)"/><linearGradient id="SVGID_00000023262957112372104080000008391713201309492924_" gradientUnits="userSpaceOnUse" x1="43.61" y1="46.224" x2="43.61" y2="49.435" gradientTransform="matrix(1 0 0 -1 0 62.9524)"><stop offset=".001" stop-color="#3C2200"/><stop offset="1" stop-color="#7A4400"/></linearGradient><path d="M37.2,14.7c0-1.2,1.3-2,3.6-2 c1.9,0,6.2,1.1,9.1,4.8c0.5,0.7-0.3,1.1-0.8,0.6c-1.8-1.5-6.6-3.5-10.4-3.1C37.2,15.2,37.2,14.7,37.2,14.7z" fill="url(#SVGID_00000023262957112372104080000008391713201309492924_)"/><radialGradient id="SVGID_00000113353448522489031300000010277450597655237528_" cx="-548.493" cy="1287.737" r="1" gradientTransform="matrix(-30.7625 0 0 30.7625 -16869.1816 -39589.7383)" gradientUnits="userSpaceOnUse"><stop offset="0" stop-color="#7A4400" stop-opacity="0.5"/><stop offset=".583" stop-color="#894D00" stop-opacity="0.2069"/><stop offset=".995" stop-color="#975500" stop-opacity="0"/></radialGradient><path d="M5.8,36.5c0,0-2.6-3-3.5-11.3c-0.1-0.6-0.9-1.2-1.5-1.5c0.4-1.6,0.8-3.1,1.4-4.6C2.8,19,3.8,18.8,5,18.7c4.5-0.5,12-0.5,15.5,0.5 c4.8,1.4,6.6,3.5,9.5,3.5v1.6c-3.4,0-0.6,5.9-5.3,11.2C20.9,39.7,8.2,39.7,5.8,36.5z" opacity="0.5" fill="url(#SVGID_00000113353448522489031300000010277450597655237528_)" enable-background="new"/><radialGradient id="SVGID_00000063627227056137095200000014629891079931504001_" cx="-514.555" cy="1211.215" r="1" gradientTransform="matrix(30.7625 0 0 -30.7625 15886.1338 37284.2852)" gradientUnits="userSpaceOnUse"><stop offset="0" stop-color="#7A4400" stop-opacity="0.5"/><stop offset=".583" stop-color="#894D00" stop-opacity="0.2069"/><stop offset=".995" stop-color="#975500" stop-opacity="0"/></radialGradient><path d="M55.2,36.5c0,0,2.6-3,3.5-11.3c0.1-0.6,0.9-1.2,1.5-1.5c-0.4-1.6-0.8-3.1-1.4-4.6c-0.6-0.1-1.6-0.3-2.8-0.4 c-4.5-0.5-12-0.5-15.5,0.5c-4.8,1.4-6.6,3.5-9.5,3.5v1.6c3.4,0,0.6,5.9,5.3,11.2C40.1,39.7,52.8,39.7,55.2,36.5z" opacity="0.5" fill="url(#SVGID_00000063627227056137095200000014629891079931504001_)" enable-background="new"/><radialGradient id="SVGID_00000049183693150777566420000006542114346233963194_" cx="-420.176" cy="846.256" r="1.001" gradientTransform="matrix(5.7141 0.5873 0.2833 -2.7568 2204.3516 2606.0444)" gradientUnits="userSpaceOnUse"><stop offset=".001" stop-color="#7A4400"/><stop offset="1" stop-color="#643800"/></radialGradient><path d="M43.5,23.3c0,0,5.3,0.5,6.8,4.6 c0.1,0.2,0.2,0.5,0.1,0.8c0,0.5-0.5,1.1-1.4,0.6c-5.8-3.2-9.2-1.7-11.7-0.6c-1,0.4-1.8-0.6-1.5-1.4c0.1-0.2,0.2-0.5,0.3-0.7 C38.2,22.7,43.5,23.3,43.5,23.3z" fill="url(#SVGID_00000049183693150777566420000006542114346233963194_)"/><linearGradient id="SVGID_00000126289643348075006760000007874622324841187979_" gradientUnits="userSpaceOnUse" x1="43.7" y1="41.334" x2="43.342" y2="37.64" gradientTransform="matrix(1 0 0 -1 0 62.9524)"><stop offset=".001" stop-color="#3C2200"/><stop offset="1" stop-color="#512D00"/></linearGradient><path d="M43.4,24.6c0,0,4.3,0.4,7,3.8 c0-0.2-0.1-0.3-0.1-0.5c-1.5-4-6.8-4.6-6.8-4.6s-5.3-0.6-7.5,3.1c-0.1,0.1-0.2,0.3-0.2,0.4C39,24.1,43.4,24.6,43.4,24.6z" fill="url(#SVGID_00000126289643348075006760000007874622324841187979_)"/><radialGradient id="SVGID_00000115488036683607939070000007789790897462369418_" cx="-600.974" cy="1691.209" r="1" gradientTransform="matrix(-5.714 0.5873 0.2833 2.7568 -3895.3921 -4283.1641)" gradientUnits="userSpaceOnUse"><stop offset=".001" stop-color="#7A4400"/><stop offset="1" stop-color="#643800"/></radialGradient><path d="M17.4,23.3c0,0-5.3,0.5-6.8,4.6 c-0.1,0.2-0.2,0.5-0.1,0.8c0,0.5,0.5,1.1,1.4,0.6c5.8-3.2,9.2-1.7,11.7-0.6c1,0.4,1.8-0.6,1.5-1.4c-0.1-0.2-0.2-0.5-0.3-0.7 C22.8,22.7,17.4,23.3,17.4,23.3z" fill="url(#SVGID_00000115488036683607939070000007789790897462369418_)"/><linearGradient id="SVGID_00000141443816174158974150000009062936619951839621_" gradientUnits="userSpaceOnUse" x1="17.252" y1="41.33" x2="17.611" y2="37.636" gradientTransform="matrix(1 0 0 -1 0 62.9524)"><stop offset=".001" stop-color="#3C2200"/><stop offset="1" stop-color="#512D00"/></linearGradient><path d="M17.6,24.6c0,0-4.3,0.4-7,3.8 c0-0.2,0.1-0.3,0.1-0.5c1.5-4,6.8-4.6,6.8-4.6s5.3-0.6,7.5,3.1c0.1,0.1,0.2,0.3,0.2,0.4C21.9,24.1,17.6,24.6,17.6,24.6z" fill="url(#SVGID_00000141443816174158974150000009062936619951839621_)"/><path d="M43.9,40.9c-0.2,0-0.5,0-0.7,0.2c-3.3,3.1-8.3,4.7-12.1,4.7h-0.6h-0.6c-3.8,0-8.9-1.7-12.1-4.7 c-0.2-0.2-0.4-0.2-0.7-0.2c-0.3,0.1-0.4,0.3-0.3,0.6c2.8,4.8,8,7.8,13.6,7.8h0.2h0.2c5.6,0,10.8-3,13.6-7.8 C44.3,41.3,44.2,41,43.9,40.9z" fill="#643800"/><linearGradient id="SVGID_00000143584517752450530780000016006255232710769086_" gradientUnits="userSpaceOnUse" x1="30.48" y1="19.884" x2="30.48" y2="15.334" gradientTransform="matrix(1 0 0 -1 0 62.9524)"><stop offset=".001" stop-color="#3C2200"/><stop offset="1" stop-color="#512D00"/></linearGradient><path d="M43.9,40.9c-0.2,0-0.5,0-0.7,0.2 c-3.3,3.1-8.3,4.7-12.1,4.7h-0.6h-0.6c-3.8,0-8.9-1.7-12.1-4.7c-0.2-0.2-0.4-0.2-0.7-0.2c-0.3,0.1-0.4,0.3-0.3,0.6 c0,0.1,0.1,0.1,0.1,0.1c0.3-0.2,0.6-0.3,0.8,0c3.1,3.5,7.7,5.6,12.6,5.6h0.2h0.2c5,0,9.6-2.1,12.7-5.7c0.3-0.3,0.6-0.2,0.8,0 c0,0,0-0.1,0.1-0.1C44.3,41.3,44.2,41,43.9,40.9z" fill="url(#SVGID_00000143584517752450530780000016006255232710769086_)"/><linearGradient id="SVGID_00000018942252241397594130000014110062135805608605_" gradientUnits="userSpaceOnUse" x1="15.951" y1="10.693" x2="15.951" y2="38.885" gradientTransform="matrix(1 0 0 -1 0 62.9524)"><stop offset="0" stop-color="#8800C7"/><stop offset="1" stop-color="#7000A3" stop-opacity="0"/></linearGradient><path d="M15.8,18.7c-3.9-0.3-8.4-0.6-9.3,2.4 c-0.9,3-0.3,7.6,1.8,11c2.1,3.4,10.3,3.2,13.3,1.4c4-2.4,4.3-6.5,4.4-8.9C26,21.3,21.7,19.1,15.8,18.7z" fill="url(#SVGID_00000018942252241397594130000014110062135805608605_)"/><linearGradient id="SVGID_00000010278896620303691910000017377803577232551600_" gradientUnits="userSpaceOnUse" x1="44.925" y1="10.693" x2="44.925" y2="38.885" gradientTransform="matrix(1 0 0 -1 0 62.9524)"><stop offset="0" stop-color="#8800C7"/><stop offset="1" stop-color="#7000A3" stop-opacity="0"/></linearGradient><path d="M45.1,18.7c3.9-0.3,8.4-0.6,9.3,2.4 c0.9,3,0.3,7.6-1.8,11c-2.1,3.4-10.3,3.2-13.3,1.4c-4-2.4-4.3-6.5-4.4-8.9C34.9,21.3,39.1,19.1,45.1,18.7z" fill="url(#SVGID_00000010278896620303691910000017377803577232551600_)"/><linearGradient id="SVGID_00000085231910680132669970000014284251375524649101_" gradientUnits="userSpaceOnUse" x1="30.435" y1="35.47" x2="30.435" y2="56.607" gradientTransform="matrix(1 0 0 -1 0 62.9524)"><stop offset="0" stop-color="#242424"/><stop offset="1" stop-color="#8EA5A8"/></linearGradient><path d="M59.7,17.6c0,0-1-0.4-4.3-0.8 c-4.5-0.5-12-0.5-15.5,0.5c-4.8,1.4-6.6,3.5-9.5,3.5c-2.9,0-4.7-2-9.5-3.5c-3.4-1-10.9-1-15.5-0.5c-3.3,0.4-4.3,0.8-4.3,0.8 c0,0.3,0,0.7,0,1.1c0,0,2.1,0.3,2.1,0.5c0,0.1-2,0.3-2,0.3c0,0.3,0.1,0.7,0.2,1.1L2.2,21c0.6,0.3,1,0.9,1.1,1.6 c0.9,8.3,3.5,11.7,3.5,11.7c2.4,3.2,13.6,4.3,17.4,0.1c4.7-5.3,2.8-10,6.2-10c3.4,0,1.5,4.8,6.2,10c3.8,4.2,15,3.1,17.4-0.1 c0,0,2.6-3.4,3.5-11.7c0.1-0.7,0.5-1.3,1.1-1.6l0.8-0.4c0.1-0.4,0.1-0.7,0.2-1.1c0,0-1.9-0.2-1.9-0.3c0-0.2,1.9-0.5,1.9-0.5 C59.7,18.3,59.7,17.9,59.7,17.6z M21.5,33.5c-3,1.8-11.2,2-13.3-1.4c-2.1-3.4-2.7-8-1.8-11c0.9-3,5.4-2.6,9.3-2.4 c6,0.4,10.3,2.6,10.1,5.9C25.8,27,25.4,31.1,21.5,33.5z M52.7,32.1c-2.1,3.4-10.3,3.2-13.3,1.4c-4-2.4-4.3-6.5-4.4-8.9 c-0.1-3.2,4.2-5.4,10.1-5.9c3.9-0.3,8.4-0.6,9.3,2.4C55.3,24.1,54.8,28.7,52.7,32.1z" fill="url(#SVGID_00000085231910680132669970000014284251375524649101_)"/><linearGradient id="SVGID_00000141450621315380289390000000559986990631087513_" gradientUnits="userSpaceOnUse" x1="5.313" y1="54.38" x2="26.668" y2="19.436" gradientTransform="matrix(1 0 0 -1 0 62.9524)"><stop offset="0" stop-color="#000000"/><stop offset="1" stop-color="#000000" stop-opacity="0.5"/></linearGradient><path d="M15.8,18.7c-3.9-0.3-8.4-0.6-9.3,2.4 c-0.9,3-0.3,7.6,1.8,11c2.1,3.4,10.3,3.2,13.3,1.4c4-2.4,4.3-6.5,4.4-8.9C26,21.3,21.7,19.1,15.8,18.7z" fill="url(#SVGID_00000141450621315380289390000000559986990631087513_)"/><linearGradient id="SVGID_00000033349040555324254690000005922220179160364979_" gradientUnits="userSpaceOnUse" x1="15.861" y1="35.981" x2="15.861" y2="19.825" gradientTransform="matrix(1 0 0 -1 0 62.9524)"><stop offset="0" stop-color="#000000"/><stop offset="1" stop-color="#8EA5A8"/></linearGradient><path d="M21.5,33.5c-3,1.8-11.2,2-13.3-1.4 c-1.8-2.9-2.4-6.6-2.1-9.4c0,0,0,0,0,0c-0.3,3.1,0.2,6.8,2,9.8c2.1,3.7,10.5,3.5,13.5,1.5c3.1-2,3.9-4.9,4.2-7.5 C25.4,28.9,24.5,31.6,21.5,33.5z" fill="url(#SVGID_00000033349040555324254690000005922220179160364979_)"/><radialGradient id="SVGID_00000037695011844173559640000007546696789709532341_" cx="-386.502" cy="714.396" r="1" gradientTransform="matrix(3.5995 0 0 -2.1997 1421.5983 1593.4545)" gradientUnits="userSpaceOnUse"><stop offset=".016" stop-color="#8EA5A8" stop-opacity="0.25"/><stop offset="1" stop-color="#8EA5A8" stop-opacity="0"/></radialGradient><path d="M32.3,24.3c0.1-1,0.3-2,0.7-2.9l0.6-1.4c-1,0.5-2,0.8-3.2,0.8c-1.2,0-2.2-0.3-3.2-0.8l0.6,1.4c0.4,0.9,0.6,1.9,0.7,2.9l0.1,0.9 c0.4-0.6,0.9-0.9,1.8-0.9c0.9,0,1.4,0.3,1.8,0.9L32.3,24.3z" opacity="0.75" fill="url(#SVGID_00000037695011844173559640000007546696789709532341_)" enable-background="new"/><path d="M6.4,21.5c0.9-3,5.4-2.6,9.3-2.4c5.8,0.4,10,2.5,10.1,5.5 c0,0,0-0.1,0-0.1c0.1-3.2-4.2-5.4-10.1-5.9C11.9,18.4,7.3,18,6.4,21C6.1,22,6,23.2,6,24.4C6,23.3,6.2,22.3,6.4,21.5z" opacity="0.75" enable-background="new"/><linearGradient id="SVGID_00000016761051508759352930000006601436537797185169_" gradientUnits="userSpaceOnUse" x1="5.272" y1="43.838" x2="1.534" y2="43.838" gradientTransform="matrix(1 0 0 -1 0 62.9524)"><stop offset="0" stop-color="#FFFFFF"/><stop offset="1" stop-color="#FFBF00"/></linearGradient><path d="M1.2,18.7c0,0.2,0,0.5,0.1,0.8h3 c0.5,0,0.8-0.4,0.8-0.8H1.2z" fill="url(#SVGID_00000016761051508759352930000006601436537797185169_)"/><linearGradient id="SVGID_00000029762308550879555620000015360172290815467671_" gradientUnits="userSpaceOnUse" x1="33.646" y1="55.329" x2="57.76" y2="18.444" gradientTransform="matrix(1 0 0 -1 0 62.9524)"><stop offset="0" stop-color="#000000"/><stop offset="1" stop-color="#000000" stop-opacity="0.5"/></linearGradient><path d="M45.1,18.7c3.9-0.3,8.4-0.6,9.3,2.4 c0.9,3,0.3,7.6-1.8,11c-2.1,3.4-10.3,3.2-13.3,1.4c-4-2.4-4.3-6.5-4.4-8.9C34.9,21.3,39.1,19.1,45.1,18.7z" fill="url(#SVGID_00000029762308550879555620000015360172290815467671_)"/><linearGradient id="SVGID_00000131356549344951203930000007549686784688729765_" gradientUnits="userSpaceOnUse" x1="44.995" y1="35.981" x2="44.995" y2="19.825" gradientTransform="matrix(1 0 0 -1 0 62.9524)"><stop offset="0" stop-color="#000000"/><stop offset="1" stop-color="#8EA5A8"/></linearGradient><path d="M39.4,33.5c3,1.8,11.2,2,13.3-1.4 c1.8-2.9,2.4-6.6,2.1-9.4c0,0,0,0,0,0c0.3,3.1-0.2,6.8-2,9.8C50.7,36.2,42.3,36,39.3,34c-3.1-2-3.9-4.9-4.2-7.5 C35.5,28.9,36.4,31.6,39.4,33.5z" fill="url(#SVGID_00000131356549344951203930000007549686784688729765_)"/><path d="M54.4,21.5c-0.9-3-5.4-2.6-9.3-2.4c-5.8,0.4-10,2.5-10.1,5.5 c0,0,0-0.1,0-0.1c-0.1-3.2,4.2-5.4,10.1-5.9c3.9-0.3,8.4-0.6,9.3,2.4c0.3,1,0.4,2.1,0.4,3.4C54.8,23.3,54.7,22.3,54.4,21.5z" opacity="0.75" enable-background="new"/><linearGradient id="SVGID_00000156559174659003347440000006939225854828072116_" gradientUnits="userSpaceOnUse" x1="55.598" y1="43.838" x2="59.336" y2="43.838" gradientTransform="matrix(1 0 0 -1 0 62.9524)"><stop offset="0" stop-color="#FFFFFF"/><stop offset="1" stop-color="#FFBF00"/></linearGradient><path d="M59.7,18.7c0,0.2,0,0.5-0.1,0.8h-3 c-0.5,0-0.8-0.4-0.8-0.8H59.7z" fill="url(#SVGID_00000156559174659003347440000006939225854828072116_)"/><radialGradient id="SVGID_00000103947032421407824790000000788983230096768182_" cx="-581.142" cy="1570.824" r="1" gradientTransform="matrix(-10.5203 0 0 3.6627 -6068.5391 -5730.0356)" gradientUnits="userSpaceOnUse"><stop offset="0" stop-color="#FFFFFF" stop-opacity="0.24"/><stop offset="1" stop-color="#FFFFFF" stop-opacity="0"/></radialGradient><path d="M45.1,18.7c3.9-0.3,8.4-0.6,9.3,2.4c0.9,3,0.3,7.6-1.8,11c-2.1,3.4-10.3,3.2-13.3,1.4c-4-2.4-4.3-6.5-4.4-8.9 C34.9,21.3,39.1,19.1,45.1,18.7z" opacity="0.5" fill="url(#SVGID_00000103947032421407824790000000788983230096768182_)" enable-background="new"/><radialGradient id="SVGID_00000153694236559164208620000015266073735361107355_" cx="-479.782" cy="914.35" r="1" gradientTransform="matrix(10.0886 0 0 -3.5121 4856.5791 3235.2283)" gradientUnits="userSpaceOnUse"><stop offset="0" stop-color="#FFFFFF" stop-opacity="0.24"/><stop offset="1" stop-color="#FFFFFF" stop-opacity="0"/></radialGradient><path d="M15.8,19.4c-3.7-0.3-8.1-0.6-9,2.3C6,24.6,6.5,29,8.5,32.2c2,3.3,9.9,3.1,12.7,1.4c3.8-2.3,4.1-6.2,4.2-8.6 C25.6,21.9,21.5,19.8,15.8,19.4z" opacity="0.5" fill="url(#SVGID_00000153694236559164208620000015266073735361107355_)" enable-background="new"/><radialGradient id="SVGID_00000091722406845427622740000004941611306170580097_" cx="-522.843" cy="1216.557" r="1" gradientTransform="matrix(60.1324 0 0 -35.7548 31452.2422 43549.4922)" gradientUnits="userSpaceOnUse"><stop offset=".965" stop-color="#8EA5A8" stop-opacity="0"/><stop offset="1" stop-color="#8EA5A8"/></radialGradient><path d="M27.9,21.4L27.3,20 c-1.6-0.7-3.4-1.8-6.3-2.7c-3.4-1-10.9-1-15.5-0.5c-3.3,0.4-4.3,0.8-4.3,0.8c0,0.3,0,0.7,0,1.1c7.1-0.6,15.7-2,25.8,2.6 C27.3,21.5,27.6,21.5,27.9,21.4C28,21.5,27.9,21.4,27.9,21.4z" fill="url(#SVGID_00000091722406845427622740000004941611306170580097_)"/><radialGradient id="SVGID_00000022551492834415097050000013940449209600745647_" cx="-540.205" cy="1282.395" r="1" gradientTransform="matrix(-60.1324 0 0 35.7547 -32435.209 -45799.9258)" gradientUnits="userSpaceOnUse"><stop offset=".965" stop-color="#8EA5A8" stop-opacity="0"/><stop offset="1" stop-color="#8EA5A8"/></radialGradient><path d="M33.1,21.4l0.6-1.4 c1.6-0.7,3.4-1.8,6.3-2.7c3.4-1,10.9-1,15.5-0.5c3.3,0.4,4.3,0.8,4.3,0.8c0,0.3,0,0.7,0,1.1c-7.1-0.6-15.7-2-25.8,2.6 C33.8,21.4,33.4,21.5,33.1,21.4C33.1,21.5,33.1,21.4,33.1,21.4z" fill="url(#SVGID_00000022551492834415097050000013940449209600745647_)"/></g></svg>